# xmcd CD database file
#
# Track frame offsets:
#	150
#	18900
#	33332
#	51817
#	67990
#	83890
#	101337
#	116262
#	130255
#	146452
#
# Disc length: 2168 seconds
#
# Revision: 3
# Processed by: cddbd v1.5.2PL0 Copyright (c) Steve Scherf et al.
# Submitted via: CDex 1.60beta1
#
DISCID=7708760a
DTITLE=Patricia Conroy - You Can't Resist
DYEAR=1994
DGENRE=Country
TTITLE0=What Else Can I Do
TTITLE1=You Can't Resist It
TTITLE2=Somebody's Leavin'
TTITLE3=Diamonds
TTITLE4=The Bridge
TTITLE5=I Don't Wanna Be The One
TTITLE6=Crazy Fool
TTITLE7=Too True Blue
TTITLE8=Keep Me Rockin'
TTITLE9=Home In Your Arms
EXTD=YEAR: 1994
EXTT0=
EXTT1=
EXTT2=
EXTT3=
EXTT4=
EXTT5=
EXTT6=
EXTT7=
EXTT8=
EXTT9=
PLAYORDER=
